:FULLY-SPECIFIED
:FORCE-ALL-JOINTS-BE-3DOF
:DEGREES
1
root 6.24314 16.836 -28.1378 9.0217 -2.52979 -3.05774
lfemur -20.3712 2.30257 -19.9954
ltibia 35.927 0 0
lfoot -38.654 3.93715 0
ltoes 38.9541 0 0
rfemur -19.4747 0.22019 19.5256
rtibia 36.0342 0 0
rfoot -30.3779 -10.4967 0
rtoes 21.4483 0 0
lowerback -2.05144 3.66971 -5.03766
upperback -2.66728 5.00355 3.49279
thorax -2.36397 2.67023 6.42441
lowerneck -9.84699 -2.36864 1.94815
upperneck -1.37933 -3.32542 -1.65382
head 1.16433 -1.69823 -0.975663
lclavicle -1.65488e-014 -3.69739e-014 0
lhumerus -41.7253 -10.8128 99.8312
lradius 34.5094 0 0
lwrist 2.17521 0 0
lhand -10.5949 9.65639 0
lfingers 7.12502 0 0
lthumb 15.4107 39.062 0
rclavicle -1.65488e-014 -3.69739e-014 0
rhumerus -43.273 -4.86223 -84.2703
rradius 40.4763 0 0
rwrist 9.89469 0 0
rhand -23.7965 -22.476 0
rfingers 7.12502 0 0
rthumb 2.67393 -52.439 0
2
root 6.24136 16.8386 -28.1339 9.03073 -2.52736 -3.06016
lfemur -20.3321 2.29393 -19.9838
ltibia 35.8584 -0 0
lfoot -38.6336 3.94514 -3.57644e-005
ltoes 39.0021 -0 0
rfemur -19.3615 0.48616 19.5285
rtibia 35.8497 -0 0
rfoot -30.3089 -10.7566 -0.00201697
rtoes 21.5333 -0 0
lowerback -2.12256 3.64966 -4.99486
upperback -2.65696 4.97754 3.48571
thorax -2.30089 2.65416 6.39865
lowerneck -9.84895 -2.35688 1.93427
upperneck -1.39398 -3.30868 -1.64842
head 1.16046 -1.68956 -0.970522
lclavicle -1.65488e-014 -3.69739e-014 0
lhumerus -41.7328 -10.7815 99.7658
lradius 34.4019 -0 0
lwrist 2.13543 0 0
lhand -10.5908 9.52917 -0.00110674
lfingers 7.12502 -0 0
lthumb 15.4147 38.9346 -0.00104145
rclavicle -1.65488e-014 -3.69739e-014 0
rhumerus -43.2305 -4.86935 -84.3046
rradius 40.4837 -0 0
rwrist 9.9197 0 0
rhand -23.9603 -22.3306 -0.00397391
rfingers 7.12502 -0 0
rthumb 2.51573 -52.2944 -0.00381651
3
root 6.23828 16.8413 -28.13 9.0444 -2.52067 -3.05782
lfemur -20.2953 2.28154 -19.9721
ltibia 35.7843 -0 0
lfoot -38.5993 3.95389 -4.0238e-005
ltoes 39.0317 -0 0
rfemur -19.2429 0.764821 19.5311
rtibia 35.6498 -0 0
rfoot -30.2292 -11.0392 -0.00453364
rtoes 21.5671 -0 0
lowerback -2.20611 3.62396 -4.93299
upperback -2.64334 4.94419 3.46427
thorax -2.22467 2.63308 6.34803
lowerneck -9.84937 -2.34199 1.9255
upperneck -1.41506 -3.28856 -1.63059
head 1.15441 -1.679 -0.962174
lclavicle -1.65488e-014 -3.69739e-014 0
lhumerus -41.7389 -10.7618 99.6887
lradius 34.3254 -0 0
lwrist 2.11722 0 0
lhand -10.5923 9.38096 -0.00185914
lfingers 7.12502 -0 0
lthumb 15.4132 38.7866 -0.00174692
rclavicle -1.65488e-014 -3.69739e-014 0
rhumerus -43.1768 -4.87735 -84.3615
rradius 40.484 -0 0
rwrist 9.94756 0 0
rhand -24.1286 -22.1834 -0.00753697
rfingers 7.12502 -0 0
rthumb 2.35318 -52.148 -0.0072379
4
root 6.23399 16.8442 -28.1261 9.06232 -2.51006 -3.05108
lfemur -20.2606 2.26572 -19.9601
ltibia 35.7055 -0 0
lfoot -38.5522 3.96333 -1.95641e-005
ltoes 39.0439 -0 0
rfemur -19.1195 1.05425 19.5334
rtibia 35.4363 -0 0
rfoot -30.14 -11.3417 -0.00736304
rtoes 21.5531 -0 0
lowerback -2.30092 3.59318 -4.85362
upperback -2.62669 4.90414 3.42955
thorax -2.13651 2.6075 6.2745
lowerneck -9.84838 -2.32426 1.9215
upperneck -1.44201 -3.26535 -1.6013
head 1.14638 -1.66672 -0.950879
lclavicle -1.65488e-014 -3.69739e-014 0
lhumerus -41.7437 -10.7531 99.601
lradius 34.2777 -0 0
lwrist 2.11909 0 0
lhand -10.5992 9.21379 -0.00230126
lfingers 7.12502 -0 0
lthumb 15.4066 38.62 -0.00215852
rclavicle -1.65488e-014 -3.69739e-014 0
rhumerus -43.1128 -4.88611 -84.4391
rradius 40.478 -0 0
rwrist 9.97794 0 0
rhand -24.3005 -22.035 -0.0106533
rfingers 7.12502 -0 0
rthumb 2.18717 -52.0004 -0.0102298
5
root 6.2286 16.8471 -28.1222 9.08413 -2.49586 -3.04028
lfemur -20.2281 2.24678 -19.948
ltibia 35.6226 -0 0
lfoot -38.4935 3.97336 2.01351e-005
ltoes 39.04 -0 0
rfemur -18.9923 1.35252 19.5356
rtibia 35.2111 -0 0
rfoot -30.0423 -11.6616 -0.0103266
rtoes 21.4948 -0 0
lowerback -2.40582 3.55787 -4.75831
upperback -2.60728 4.85805 3.38267
thorax -2.0376 2.57793 6.17999
lowerneck -9.84606 -2.30395 1.92194
upperneck -1.47429 -3.23937 -1.5615
head 1.13653 -1.6529 -0.936898
lclavicle -1.65488e-014 -3.69739e-014 0
lhumerus -41.7472 -10.7544 99.5038
lradius 34.2572 -0 0
lwrist 2.13958 0 0
lhand -10.611 9.0297 -0.0024799
lfingers 7.12502 -0 0
lthumb 15.3952 38.4368 -0.00232089
rclavicle -1.65488e-014 -3.69739e-014 0
rhumerus -43.0396 -4.89547 -84.5357
rradius 40.4659 -0 0
rwrist 10.0105 0 0
rhand -24.475 -21.886 -0.0132955
rfingers 7.12502 -0 0
rthumb 2.01861 -51.8524 -0.0127663
6
root 6.22221 16.8502 -28.1182 9.10944 -2.47839 -3.02577
lfemur -20.1976 2.22502 -19.9358
ltibia 35.5363 -0 0
lfoot -38.4243 3.98389 7.29128e-005
ltoes 39.0212 -0 0
rfemur -18.862 1.65771 19.5377
rtibia 34.9758 -0 0
rfoot -29.9372 -11.9961 -0.0132579
rtoes 21.3959 -0 0
lowerback -2.51963 3.5186 -4.64864
upperback -2.58537 4.80657 3.32472
thorax -1.92915 2.54486 6.06645
lowerneck -9.84254 -2.28136 1.9265
upperneck -1.51136 -3.21091 -1.51215
head 1.12505 -1.6377 -0.92049
lclavicle -1.65488e-014 -3.69739e-014 0
lhumerus -41.7494 -10.7651 99.3982
lradius 34.2617 -0 0
lwrist 2.17721 0 0
lhand -10.6272 8.83074 -0.002443
lfingers 7.12502 -0 0
lthumb 15.3796 38.2391 -0.00227968
rclavicle -1.65488e-014 -3.69739e-014 0
rhumerus -42.9581 -4.90528 -84.6493
rradius 40.4484 -0 0
rwrist 10.0451 0 0
rhand -24.6512 -21.7373 -0.0154453
rfingers 7.12502 -0 0
rthumb 1.84842 -51.7045 -0.0148295
7
root 6.21494 16.8533 -28.1144 9.13786 -2.45799 -3.00788
lfemur -20.1693 2.20076 -19.9237
ltibia 35.4472 -0 0
lfoot -38.3456 3.99485 0.000133135
ltoes 38.9888 -0 0
rfemur -18.7295 1.96789 19.5399
rtibia 34.7325 -0 0
rfoot -29.8256 -12.3426 -0.0160061
rtoes 21.2598 -0 0
lowerback -2.64119 3.47593 -4.52616
upperback -2.56123 4.75036 3.25679
thorax -1.81233 2.50882 5.93582
lowerneck -9.83791 -2.25675 1.93483
upperneck -1.55267 -3.18028 -1.4542
head 1.11212 -1.6213 -0.901917
lclavicle -1.65488e-014 -3.69739e-014 0
lhumerus -41.7505 -10.7844 99.2854
lradius 34.2894 -0 0
lwrist 2.23052 0 0
lhand -10.6475 8.61894 -0.00223823
lfingers 7.12502 -0 0
lthumb 15.36 38.0288 -0.0020803
rclavicle -1.65488e-014 -3.69739e-014 0
rhumerus -42.8694 -4.91541 -84.7783
rradius 40.4258 -0 0
rwrist 10.0812 0 0
rhand -24.8282 -21.5893 -0.0170931
rfingers 7.12502 -0 0
rthumb 1.67749 -51.5575 -0.0164107
8
root 6.20688 16.8564 -28.1105 9.16903 -2.43499 -2.98697
lfemur -20.1431 2.17433 -19.9117
ltibia 35.356 -0 0
lfoot -38.2587 4.00614 0.0001956
ltoes 38.9439 -0 0
rfemur -18.5957 2.28114 19.5422
rtibia 34.483 -0 0
rfoot -29.7086 -12.6985 -0.0184388
rtoes 21.0901 -0 0
lowerback -2.76933 3.4304 -4.39246
upperback -2.53512 4.69008 3.17999
thorax -1.68835 2.47029 5.79005
lowerneck -9.83227 -2.2304 1.94662
upperneck -1.59768 -3.14778 -1.38862
head 1.0979 -1.60387 -0.881439
lclavicle -1.65488e-014 -3.69739e-014 0
lhumerus -41.7505 -10.8116 99.1663
lradius 34.3384 -0 0
lwrist 2.29803 0 0
lhand -10.6715 8.39634 -0.00191177
lfingers 7.12502 -0 0
lthumb 15.337 37.8079 -0.00176663
rclavicle -1.65488e-014 -3.69739e-014 0
rhumerus -42.7744 -4.92569 -84.9208
rradius 40.3988 -0 0
rwrist 10.1187 0 0
rhand -25.005 -21.4429 -0.0182384
rfingers 7.12502 -0 0
rthumb 1.50673 -51.412 -0.0175093
9
root 6.19814 16.8596 -28.1067 9.20257 -2.40972 -2.96337
lfemur -20.119 2.14601 -19.8997
ltibia 35.2633 -0 0
lfoot -38.1646 4.01768 0.000255645
ltoes 38.8878 -0 0
rfemur -18.4612 2.59553 19.5447
rtibia 34.2289 -0 0
rfoot -29.5873 -13.0611 -0.0204441
rtoes 20.8903 -0 0
lowerback -2.90287 3.38257 -4.2491
upperback -2.50732 4.62637 3.09543
thorax -1.5584 2.42978 5.63107
lowerneck -9.82575 -2.2026 1.96152
upperneck -1.64585 -3.11371 -1.31636
head 1.08259 -1.58559 -0.859315
lclavicle -1.65488e-014 -3.69739e-014 0
lhumerus -41.7494 -10.8458 99.0423
lradius 34.4067 -0 0
lwrist 2.37827 0 0
lhand -10.6986 8.16499 -0.00150714
lfingers 7.12502 -0 0
lthumb 15.3108 37.5786 -0.00138004
rclavicle -1.65488e-014 -3.69739e-014 0
rhumerus -42.6741 -4.93601 -85.0749
rradius 40.3678 -0 0
rwrist 10.1572 0 0
rhand -25.1807 -21.2986 -0.0188898
rfingers 7.12502 -0 0
rthumb 1.33705 -51.2686 -0.0181337
10
root 6.18883 16.8628 -28.103 9.23809 -2.38251 -2.93744
lfemur -20.0969 2.11615 -19.888
ltibia 35.1698 -0 0
lfoot -38.0644 4.02937 0.000309229
ltoes 38.8216 -0 0
rfemur -18.3271 2.90914 19.5473
rtibia 33.9723 -0 0
rfoot -29.4627 -13.4279 -0.0219329
rtoes 20.664 -0 0
lowerback -3.04063 3.33296 -4.09767
upperback -2.47809 4.55989 3.00419
thorax -1.42368 2.38777 5.46086
lowerneck -9.81843 -2.17361 1.9792
upperneck -1.69664 -3.07837 -1.23837
head 1.06636 -1.56662 -0.835806
lclavicle -1.65488e-014 -3.69739e-014 0
lhumerus -41.7474 -10.8864 98.9143
lradius 34.4924 -0 0
lwrist 2.46977 0 0
lhand -10.7286 7.92692 -0.00106429
lfingers 7.12502 -0 0
lthumb 15.2819 37.3427 -0.000958456
rclavicle -1.65488e-014 -3.69739e-014 0
rhumerus -42.5695 -4.94623 -85.2389
rradius 40.3333 -0 0
rwrist 10.1964 0 0
rhand -25.3544 -21.1572 -0.0190645
rfingers 7.12502 -0 0
rthumb 1.16936 -51.1281 -0.0183005
11
root 6.17904 16.866 -28.0994 9.27522 -2.35369 -2.90951
lfemur -20.0768 2.08503 -19.8765
ltibia 35.0761 -0 0
lfoot -37.9593 4.04115 0.000353007
ltoes 38.7467 -0 0
rfemur -18.194 3.22004 19.5502
rtibia 33.7149 -0 0
rfoot -29.3359 -13.796 -0.02284
rtoes 20.4146 -0 0
lowerback -3.18144 3.2821 -3.93974
upperback -2.4477 4.4913 2.90738
thorax -1.28541 2.34471 5.28134
lowerneck -9.81043 -2.14372 1.99934
upperneck -1.7495 -3.04208 -1.15561
head 1.04938 -1.54714 -0.811171
lclavicle -1.65488e-014 -3.69739e-014 0
lhumerus -41.7444 -10.9325 98.7835
lradius 34.5936 -0 0
lwrist 2.57106 0 0
lhand -10.7611 7.68418 -0.000618742
lfingers 7.12502 -0 0
lthumb 15.2507 37.1023 -0.00053557
rclavicle -1.65488e-014 -3.69739e-014 0
rhumerus -42.4616 -4.95623 -85.411
rradius 40.2958 -0 0
rwrist 10.2359 0 0
rhand -25.525 -21.0193 -0.0187881
rfingers 7.12502 -0 0
rthumb 1.00455 -50.9911 -0.0180343
